{
  "version": "1.1.5",
  "modules": [
    {
      "id": 1054,
      "plugin": "Stoermelder-P1",
      "version": "1.1.0",
      "model": "Sipo",
      "params": [
        {
          "id": 0,
          "value": 0.0
        },
        {
          "id": 1,
          "value": 0.0
        }
      ],
      "data": {
        "data": [
          0.0,
          9.88607502,
          -5.26492596,
          3.26142788,
          5.42878056,
          8.43029022,
          -3.20567131,
          -6.70770454,
          6.544734,
          7.66583061,
          -1.97166681,
          -6.5540781,
          -8.53819752,
          1.20767832,
          3.86048675,
          6.07139349,
          7.34156847,
          -4.45919609,
          -2.67502069,
          -4.41642046,
          -4.28692913,
          2.12018728,
          -5.35942841,
          -9.22377682,
          4.79202747,
          -7.50603724,
          7.43728733,
          7.08476782,
          0.387300253,
          1.6140759,
          -2.73320246,
          -3.93159437,
          7.38772154,
          -7.52498865,
          -2.04901743,
          9.56652164,
          -2.22392082,
          -7.47820377,
          -2.60305405,
          2.91765809,
          -5.59077644,
          -2.98853683,
          -8.65073013,
          6.93164587,
          -8.19070911,
          -4.24677896,
          -5.4899683,
          9.09518814,
          2.03595877,
          -5.29345036,
          3.74548554,
          -6.0283165,
          9.5767355,
          1.60967469,
          -5.98002672,
          -5.68548584,
          -1.4631784,
          2.84286499,
          6.6751709,
          -0.973379016,
          -0.0536513329,
          -2.42166471,
          -9.89542103,
          -4.93980455,
          -5.48496199,
          6.83152199,
          -9.30055618,
          7.45528698,
          -3.40635061,
          8.60077763,
          -7.75964308,
          -1.87555969,
          5.78104019,
          0.713900328,
          -1.55845702,
          -1.67739451,
          -6.58559561,
          1.48282886,
          3.50507259,
          -9.70122242,
          7.27312183,
          -3.3505547,
          1.02897763,
          8.14500713,
          1.81088448,
          -4.04319286,
          6.29931831,
          -6.27581215,
          8.9670372,
          -3.59440994,
          -7.25581408,
          -8.67793465,
          -2.59432602,
          -8.2422533,
          -0.530762076,
          -9.37060356,
          0.281951427,
          3.19111466,
          -3.80934286,
          -7.55485106,
          5.82244301,
          6.80910683,
          7.29788685,
          3.8676095,
          5.84304571,
          6.45740128,
          6.41401529,
          -4.34279156,
          -3.55724335,
          3.02811503,
          -6.20706177,
          -8.67572117,
          -1.23524666,
          8.05481148,
          -0.000510215759,
          4.77505589,
          9.4326992,
          8.95423985,
          -5.75467587,
          9.86269569,
          -1.71861947,
          1.0611546,
          8.89206409,
          -4.61771488,
          -7.4114933,
          4.33448696,
          0.328230858,
          8.70116234,
          0.945324898,
          3.36668968,
          -7.84600687,
          -6.71938801,
          -0.633558035,
          -4.86383009,
          -5.79446888,
          -0.647462606,
          -5.39191484,
          3.78540039,
          1.09822869,
          4.4046092,
          -0.103997588,
          3.79317403,
          0.0342929363,
          0.00356435776,
          -3.64536881,
          0.382636786,
          9.023242,
          8.42337227,
          -7.30225945,
          1.5391624,
          -7.46737385,
          5.34651756
        ],
        "dataPtr": 152
      },
      "pos": [
        10,
        0
      ]
    },
    {
      "id": 1055,
      "plugin": "Bogaudio",
      "version": "1.1.22",
      "model": "Bogaudio-Noise",
      "params": [],
      "rightModuleId": 1057,
      "pos": [
        0,
        0
      ]
    },
    {
      "id": 1056,
      "plugin": "NYSTHI",
      "version": "1.0.6",
      "model": "MultiVoltimetro",
      "params": [
        {
          "id": 0,
          "value": 0.0
        }
      ],
      "data": {
        "m_peak_detector_min_max": false,
        "m_peak_detector": false,
        "m_abs_value": false,
        "m_scale_mode": 1
      },
      "pos": [
        16,
        0
      ]
    },
    {
      "id": 1057,
      "plugin": "JW-Modules",
      "version": "1.0.9",
      "model": "SimpleClock",
      "params": [
        {
          "id": 0,
          "value": 0.328000009
        },
        {
          "id": 1,
          "value": 0.0
        },
        {
          "id": 2,
          "value": -2.0
        },
        {
          "id": 3,
          "value": 0.0
        }
      ],
      "leftModuleId": 1055,
      "data": {
        "running": true
      },
      "pos": [
        3,
        0
      ]
    }
  ],
  "cables": [
    {
      "id": 10,
      "outputModuleId": 1055,
      "outputId": 0,
      "inputModuleId": 1054,
      "inputId": 0,
      "color": "#c91847"
    },
    {
      "id": 11,
      "outputModuleId": 1054,
      "outputId": 0,
      "inputModuleId": 1056,
      "inputId": 0,
      "color": "#0986ad"
    },
    {
      "id": 12,
      "outputModuleId": 1057,
      "outputId": 0,
      "inputModuleId": 1054,
      "inputId": 1,
      "color": "#c9b70e"
    }
  ]
}